<svg xmlns="http://www.w3.org/2000/svg" xmlns:xlink="http://www.w3.org/1999/xlink" width="402.97674" height="402.97674" viewBox="0 0 106.62091 106.62091"><defs><linearGradient id="a"><stop offset="0" stop-color="#0c6bff"/><stop offset=".66881" stop-color="#1182ff"/><stop offset="1" stop-color="#27c2fc"/></linearGradient><linearGradient xlink:href="#a" id="b" x1="215.22401" y1="150.44411" x2="215.22401" y2="53.82319" gradientUnits="userSpaceOnUse"/></defs><g transform="translate(-161.91355 -48.82319)"><circle cx="215.22401" cy="102.13365" r="48.31046" fill="url(#b)" paint-order="markers stroke fill"/><path d="M200.84549 85.82328c-11.11713 0-20.12935 9.01222-20.12935 20.12935 0 11.11712 9.01222 20.12933 20.12935 20.12933 6.87023-.00075 13.26556-3.50564 16.963-9.29605 1.0783-1.67507 2.15178-3.35971 3.22777-5.0461h11.19646c1.25808 0 2.18826-.50323 2.83118-1.5097l5.47218-8.55496h-13.01823c2.90306-4.2686 4.78579-5.7872 9.24643-5.7872h5.59798c1.25808 0 2.18826-.50323 2.83118-1.5097l5.47217-8.55496h-15.64348c-6.93257 0-10.95309 2.46382-14.0473 7.3077l-11.50164 18.00534c-1.76079 2.92442-4.96534 4.88097-8.6277 4.88097-5.55856 0-10.06467-4.50611-10.06467-10.06467 0-5.55857 4.50611-10.06467 10.06467-10.06467 2.77929 0 5.29567 1.1263 7.11702 2.94765l5.47266-8.56726c-3.50903-2.8204-7.92651-4.44054-12.58968-4.44506z" fill="#fff"/></g></svg>