<svg version="1.1" viewBox="0 0 128 128" xmlns="http://www.w3.org/2000/svg" xmlns:xlink="http://www.w3.org/1999/xlink"><defs><linearGradient id="linearGradient1630" x1="50.248" x2="70.333" y1="137.36" y2="106.61" gradientTransform="matrix(3.7795 0 0 3.7795 -205.2 -385.32)" gradientUnits="userSpaceOnUse"><stop stop-color="#0c6bff" offset="0"/><stop stop-color="#1182ff" offset=".66881"/><stop stop-color="#27c2fc" offset="1"/></linearGradient></defs><path d="m60.628 17.629c-3.3098 0-5.9746 2.6648-5.9746 5.9746v31.049h-31.051c-3.3098 0-5.9727 2.6648-5.9727 5.9746v6.7461c0 3.3098 2.6628 5.9746 5.9727 5.9746h31.051v31.049c0 3.3098 2.6648 5.9746 5.9746 5.9746h6.7441c3.3098 0 5.9746-2.6648 5.9746-5.9746v-31.049h31.049c3.3098 0 5.9746-2.6648 5.9746-5.9746v-6.7461c0-3.3098-2.6648-5.9746-5.9746-5.9746h-31.049v-31.049c0-3.3098-2.6648-5.9746-5.9746-5.9746z" fill="url(#linearGradient1630)" stroke-linecap="round" stroke-width="3.7795" style="paint-order:stroke fill markers"/></svg>
