<?xml version="1.0" encoding="UTF-8" standalone="no"?>
<svg
   xmlns:dc="http://purl.org/dc/elements/1.1/"
   xmlns:cc="http://creativecommons.org/ns#"
   xmlns:rdf="http://www.w3.org/1999/02/22-rdf-syntax-ns#"
   xmlns:svg="http://www.w3.org/2000/svg"
   xmlns="http://www.w3.org/2000/svg"
   xmlns:sodipodi="http://sodipodi.sourceforge.net/DTD/sodipodi-0.dtd"
   xmlns:inkscape="http://www.inkscape.org/namespaces/inkscape"
   version="1.1"
   id="svg869"
   xml:space="preserve"
   width="1267.5449"
   height="904.22662"
   viewBox="0 0 1267.545 904.22662"
   sodipodi:docname="GraphhQL Overview.svg"
   inkscape:version="1.0.2 (e86c8708, 2021-01-15)"
   inkscape:export-filename="/Users/felix/source/web/codefreak_prod/docs/modules/for-developers/images/GraphhQL Overview.png"
   inkscape:export-xdpi="96"
   inkscape:export-ydpi="96"><metadata
     id="metadata875"><rdf:RDF><cc:Work
         rdf:about=""><dc:format>image/svg+xml</dc:format><dc:type
           rdf:resource="http://purl.org/dc/dcmitype/StillImage" /><dc:title></dc:title></cc:Work></rdf:RDF></metadata><defs
     id="defs873"><clipPath
       clipPathUnits="userSpaceOnUse"
       id="clipPath887"><path
         d="M 0,0 H 1024 V 768 H 0 Z"
         id="path885" /></clipPath><clipPath
       clipPathUnits="userSpaceOnUse"
       id="clipPath903"><path
         d="M 66.027,593.5178 H 592.3182 V 737.1514 H 66.027 Z"
         id="path901" /></clipPath><clipPath
       clipPathUnits="userSpaceOnUse"
       id="clipPath981"><path
         d="M 0,0 H 1024 V 768 H 0 Z"
         id="path979" /></clipPath><clipPath
       clipPathUnits="userSpaceOnUse"
       id="clipPath993"><path
         d="m 68.11043,415.884 h 365.6673 v 85.8 H 68.11043 Z"
         id="path991" /></clipPath><clipPath
       clipPathUnits="userSpaceOnUse"
       id="clipPath1043"><path
         d="M 0,0 H 1024 V 768 H 0 Z"
         id="path1041" /></clipPath><clipPath
       clipPathUnits="userSpaceOnUse"
       id="clipPath1079"><path
         d="m 311.5997,231.5742 h 400.8006 v 85.8 H 311.5997 Z"
         id="path1077" /></clipPath><clipPath
       clipPathUnits="userSpaceOnUse"
       id="clipPath1127"><path
         d="M 0,0 H 1024 V 768 H 0 Z"
         id="path1125" /></clipPath><clipPath
       clipPathUnits="userSpaceOnUse"
       id="clipPath1147"><path
         d="m 547.9609,540.8103 h 102.9113 v 11.6 H 547.9609 Z"
         id="path1145" /></clipPath><clipPath
       clipPathUnits="userSpaceOnUse"
       id="clipPath1161"><path
         d="m 559.2442,552.2715 h 80.34459 v 23 H 559.2442 Z"
         id="path1159" /></clipPath><clipPath
       clipPathUnits="userSpaceOnUse"
       id="clipPath1175"><path
         d="M 0,0 H 1024 V 768 H 0 Z"
         id="path1173" /></clipPath><clipPath
       clipPathUnits="userSpaceOnUse"
       id="clipPath1189"><path
         d="m 601.5286,415.784 h 365.6673 v 86 H 601.5286 Z"
         id="path1187" /></clipPath><clipPath
       clipPathUnits="userSpaceOnUse"
       id="clipPath1217"><path
         d="M 0,0 H 1024 V 768 H 0 Z"
         id="path1215" /></clipPath><clipPath
       clipPathUnits="userSpaceOnUse"
       id="clipPath1259"><path
         d="m 311.5997,66.12721 h 400.8006 v 70.24055 H 311.5997 Z"
         id="path1257" /></clipPath><clipPath
       clipPathUnits="userSpaceOnUse"
       id="clipPath1285"><path
         d="M 0,0 H 1024 V 768 H 0 Z"
         id="path1283" /></clipPath><clipPath
       clipPathUnits="userSpaceOnUse"
       id="clipPath1305"><path
         d="m 679.8578,177.7591 h 102.9113 v 11.6 H 679.8578 Z"
         id="path1303" /></clipPath><clipPath
       clipPathUnits="userSpaceOnUse"
       id="clipPath1319"><path
         d="m 691.1411,189.2203 h 80.34459 v 23 H 691.1411 Z"
         id="path1317" /></clipPath><clipPath
       clipPathUnits="userSpaceOnUse"
       id="clipPath1333"><path
         d="M 0,0 H 1024 V 768 H 0 Z"
         id="path1331" /></clipPath><clipPath
       clipPathUnits="userSpaceOnUse"
       id="clipPath1347"><path
         d="m 653.8043,630.2143 h 346.9623 v 70.24055 H 653.8043 Z"
         id="path1345" /></clipPath><clipPath
       clipPathUnits="userSpaceOnUse"
       id="clipPath1385"><path
         d="M 0,0 H 1024 V 768 H 0 Z"
         id="path1383" /></clipPath></defs><sodipodi:namedview
     pagecolor="#ffffff"
     bordercolor="#666666"
     borderopacity="1"
     objecttolerance="10"
     gridtolerance="10"
     guidetolerance="10"
     inkscape:pageopacity="0"
     inkscape:pageshadow="2"
     inkscape:window-width="1556"
     inkscape:window-height="924"
     id="namedview871"
     showgrid="false"
     fit-margin-top="10"
     fit-margin-left="10"
     fit-margin-right="10"
     fit-margin-bottom="10"
     inkscape:zoom="0.64494355"
     inkscape:cx="542.13506"
     inkscape:cy="637.6877"
     inkscape:window-x="152"
     inkscape:window-y="47"
     inkscape:window-maximized="0"
     inkscape:current-layer="g1039"
     inkscape:document-rotation="0"
     lock-margins="true"
     units="px" /><g
     id="g877"
     inkscape:groupmode="layer"
     inkscape:label="GraphhQL"
     transform="matrix(1.3333333,0,0,-1.3333333,-78.812215,980.39461)"><g
       id="g879" /><g
       id="g881"
       inkscape:export-xdpi="96"
       inkscape:export-ydpi="96"><g
         id="g883"
         clip-path="url(#clipPath887)"><path
           d="M 0,768 H 1024 V 0 H 0 Z"
           style="fill:#ffffff;fill-opacity:1;fill-rule:nonzero;stroke:none"
           id="path889" /><path
           d="M 88.95698,737.1514 H 569.3882 c 6.7288,0 10.7661,0 13.4576,-1.1237 3.88,-1.4122 6.9365,-4.4687 8.3487,-8.3487 1.1237,-2.6915 1.1237,-6.7288 1.1237,-13.4576 v -97.7736 c 0,-6.7288 0,-10.766 -1.1237,-13.4576 -1.4122,-3.88 -4.4687,-6.9365 -8.3487,-8.3487 -2.6915,-1.1237 -6.7288,-1.1237 -13.4576,-1.1237 H 88.95698 c -6.72879,0 -10.76606,0 -13.45757,1.1237 -3.88005,1.4122 -6.93652,4.4687 -8.34874,8.3487 -1.12367,2.6916 -1.12367,6.7288 -1.12367,13.4576 v 97.7736 c 0,6.7288 0,10.7661 1.12367,13.4576 1.41222,3.88 4.46869,6.9365 8.34874,8.3487 2.69151,1.1237 6.72878,1.1237 13.45757,1.1237 z"
           style="fill:#c2d97e;fill-opacity:0.5;fill-rule:nonzero;stroke:none"
           id="path891" /><g
           id="g893"
           transform="matrix(1,0,0,-1,66.027,737.1514)"><path
             d="M 22.92997,0 H 503.3612 c 6.7288,0 10.7661,0 13.4576,1.123671 3.88,1.412222 6.9365,4.468686 8.3487,8.348736 1.1237,2.691513 1.1237,6.728783 1.1237,13.457563 v 97.77363 c 0,6.7288 0,10.766 -1.1237,13.4576 -1.4122,3.88 -4.4687,6.9365 -8.3487,8.3487 -2.6915,1.1237 -6.7288,1.1237 -13.4576,1.1237 H 22.92997 c -6.72878,0 -10.76605,0 -13.457563,-1.1237 -3.88005,-1.4122 -6.936514,-4.4687 -8.348736,-8.3487 C 0,131.4696 0,127.4324 0,120.7036 V 22.92997 C 0,16.20119 0,12.16392 1.123671,9.472407 2.535893,5.592357 5.592357,2.535893 9.472407,1.123671 12.16392,0 16.20119,0 22.92997,0 Z"
             style="fill:none;stroke:#002e5c;stroke-width:3;stroke-linecap:butt;stroke-linejoin:miter;stroke-miterlimit:4;stroke-dasharray:none;stroke-opacity:1"
             id="path895" /></g></g></g><g
       id="g897"><g
         id="g899"
         clip-path="url(#clipPath903)"><g
           id="g905"
           transform="translate(90.52011,717.0909)"><text
             transform="scale(1,-1)"
             style="font-variant:normal;font-weight:bold;font-size:14px;font-family:Verdana;-inkscape-font-specification:Verdana-Bold;writing-mode:lr-tb;fill:#002e5c;fill-opacity:1;fill-rule:nonzero;stroke:none"
             id="text909"><tspan
               x="0 7.6426001 22.455999 32.244801 37.029999 46.3274 61.1408 70.438202 80.411797 86.790199 96.142197 102.5206 107.3058 116.9168 126.8904 131.6756 141.28661 147.2002 151.9854 156.7706 166.7442 173.1226 182.42 189.37939 195.293 204.645 212.8826 222.17999 226.96519 238.86659 248.84019 258.1376 265.09698 274.20959 279.26779 284.05301 297.3222 307.29581 313.67419 323.02621 329.4046 334.18979 343.80081 353.77441 358.5596 368.17059 375.13 379.91519 389.86081 399.83441 409.6232 417.92941 426.16699 433.1264 437.91159 447.70041 454.0788 458.86401 468.47501"
               y="0"
               sodipodi:role="line"
               id="tspan907">Implementation of interface Query, Mutation or Subscription</tspan></text></g><g
           id="g911"
           transform="translate(90.52011,717.0909)" /><g
           id="g913"
           transform="translate(283.3942,700.0909)"><text
             transform="scale(1,-1)"
             style="font-variant:normal;font-weight:normal;font-size:14px;font-family:Verdana;-inkscape-font-specification:Verdana;writing-mode:lr-tb;fill:#002e5c;fill-opacity:1;fill-rule:nonzero;stroke:none"
             id="text917"><tspan
               x="0 6.3573999 15.5792 24.0758 29.591801 33.433399 37.275002 46.134201 51.056599 58.350601 62.1922 70.600601 77.8946 85.188599 91.545998"
               y="0"
               sodipodi:role="line"
               id="tspan915">(Kotlin class) </tspan></text></g><g
           id="g919"
           transform="translate(71.527,666.0909)"><text
             transform="scale(1,-1)"
             style="font-variant:normal;font-weight:normal;font-size:14px;font-family:Verdana;-inkscape-font-specification:Verdana;writing-mode:lr-tb;fill:#002e5c;fill-opacity:1;fill-rule:nonzero;stroke:none"
             id="text923"><tspan
               x="0"
               y="0"
               id="tspan921">•</tspan></text></g><g
           id="g925"
           transform="translate(88.027,666.0909)"><text
             transform="scale(1,-1)"
             style="font-variant:normal;font-weight:normal;font-size:14px;font-family:Verdana;-inkscape-font-specification:Verdana;writing-mode:lr-tb;fill:#002e5c;fill-opacity:1;fill-rule:nonzero;stroke:none"
             id="text929"><tspan
               x="0 3.8415999 12.3382 19.6322 28.0406 33.556599 41.8964 50.618401 55.540798 59.382401 68.2416 73.164001 80.458 86.433197 93.727203 100.0846 113.7024 122.1108 125.9524 134.8116 141.16901 149.317 157.8136 163.32961 167.1712 171.0128 179.87199 186.2294 194.726 200.7012 209.4232 214.5164 221.81039 230.30701 239.02901 247.3688 252.2912 258.26639 266.6062 275.01459 283.2998 289.6572 296.9512 305.44781 314.1698 322.50961 327.43201 333.4072 341.74701 350.1554 358.44061 364.798 373.51999 379.24881 387.6572 396.37921 405.2384 413.96039 417.802 424.15939 432.56781 441.28979 445.13141 451.4888 460.38861 465.48181 473.767 479.28299"
               y="0"
               sodipodi:role="line"
               id="tspan927">located in src/main/kotlin/org.codefreak/codefreak/graphql/api/*.kt </tspan></text></g><g
           id="g931"
           transform="translate(71.527,649.0909)"><text
             transform="scale(1,-1)"
             style="font-variant:normal;font-weight:normal;font-size:14px;font-family:Verdana;-inkscape-font-specification:Verdana;writing-mode:lr-tb;fill:#002e5c;fill-opacity:1;fill-rule:nonzero;stroke:none"
             id="text935"><tspan
               x="0"
               y="0"
               id="tspan933">•</tspan></text></g><g
           id="g937"
           transform="translate(88.027,649.0909)"><text
             transform="scale(1,-1)"
             style="font-variant:normal;font-weight:normal;font-size:14px;font-family:Verdana;-inkscape-font-specification:Verdana;writing-mode:lr-tb;fill:#002e5c;fill-opacity:1;fill-rule:nonzero;stroke:none"
             id="text941"><tspan
               x="0 8.7220001 17.1304 24.4244 32.764198 41.486198 46.4086 54.905201 63.7644 68.686798 77.408798 83.137604 91.545998 100.268 109.1272 117.8492 121.6908 128.0482 136.1962 144.69279 150.2088 154.0504 157.892 166.75121"
               y="0"
               sodipodi:role="line"
               id="tspan939">based on graphql-kotlin </tspan></text></g><g
           id="g943"
           transform="translate(71.527,632.0909)"><text
             transform="scale(1,-1)"
             style="font-variant:normal;font-weight:normal;font-size:14px;font-family:Verdana;-inkscape-font-specification:Verdana;writing-mode:lr-tb;fill:#002e5c;fill-opacity:1;fill-rule:nonzero;stroke:none"
             id="text947"><tspan
               x="0"
               y="0"
               id="tspan945">•</tspan></text></g><g
           id="g949"
           transform="translate(88.027,632.0909)"><text
             transform="scale(1,-1)"
             style="font-variant:normal;font-weight:normal;font-size:14px;font-family:Verdana;-inkscape-font-specification:Verdana;writing-mode:lr-tb;fill:#002e5c;fill-opacity:1;fill-rule:nonzero;stroke:none"
             id="text953"><tspan
               x="0 8.7220001 17.218599 24.5126 31.806601 38.164001"
               y="0"
               sodipodi:role="line"
               id="tspan951">docs: </tspan></text></g><g
           id="g955"
           transform="translate(88.027,632.0909)"><text
             transform="matrix(1,0,0,-1,43.08691,0)"
             style="font-variant:normal;font-weight:normal;font-size:14px;font-family:Verdana;-inkscape-font-specification:Verdana;writing-mode:lr-tb;fill:#002e5c;fill-opacity:1;fill-rule:nonzero;stroke:none"
             id="text959"><tspan
               x="0 8.8591995 14.3752 19.891199 28.613199 35.9072 42.264599 48.622002 54.979401 63.319199 71.604401 80.326401 88.666199 97.388199 101.2298 109.6382 118.3602 124.3354 132.832 141.69119 150.2774 155.37061 164.09261 167.9342 173.4502 182.3094 191.16859 199.75481 204.84801 208.68961 217.1862 223.54359 232.26559 237.9944 246.4028 255.1248 263.98401 272.70599 276.54761 282.905 291.05301 299.54959 305.06561 308.9072 312.74881 321.608 327.96539 336.68741 345.18399 352.478 359.772 366.12939 373.4234 381.76321 387.7384 395.90039 404.2402 410.21539"
               y="0"
               sodipodi:role="line"
               id="tspan957">https://expediagroup.github.io/graphql-kotlin/docs/server/</tspan></text></g><g
           id="g961"
           transform="translate(88.027,615.0909)"><text
             transform="scale(1,-1)"
             style="font-variant:normal;font-weight:normal;font-size:14px;font-family:Verdana;-inkscape-font-specification:Verdana;writing-mode:lr-tb;fill:#002e5c;fill-opacity:1;fill-rule:nonzero;stroke:none"
             id="text965"><tspan
               x="0 7.2940001 16.016001 21.991199 25.8328 34.692001 43.414001 49.7714 57.065399 65.405197 71.380402 79.542397 87.882202 93.857399 100.2148 107.5088 116.2308 122.206 126.0476 134.9068 143.6288 149.98621 158.3806 166.5426 174.8824 180.8576 189.14281 192.98441 201.3242 212.7818 219.13921 230.5968 242.0544 248.0296 251.8712 257.38721 261.22879 270.08801 278.81 285.16739 292.4614 299.7554 308.61459 316.95441 330.5722 338.98059 345.33801 352.63199 361.1286 369.85059"
               y="0"
               sodipodi:role="line"
               id="tspan963">spring-server/spring-overview/#writing-schema-code</tspan></text></g><g
           id="g967"
           transform="matrix(1,0,0,-1,66.027,737.1514)"><path
             d="M 65.08691,106.291 H 481.6689"
             style="fill:none;stroke:#002e5c;stroke-width:0.820312;stroke-linecap:butt;stroke-linejoin:miter;stroke-miterlimit:10;stroke-dasharray:none;stroke-opacity:1"
             id="path969" /></g><g
           id="g971"
           transform="matrix(1,0,0,-1,66.027,737.1514)"><path
             d="M 22,123.291 H 400.1914"
             style="fill:none;stroke:#002e5c;stroke-width:0.820312;stroke-linecap:butt;stroke-linejoin:miter;stroke-miterlimit:10;stroke-dasharray:none;stroke-opacity:1"
             id="path973" /></g></g></g><g
       id="g975"><g
         id="g977"
         clip-path="url(#clipPath981)"><g
           id="g983"
           transform="matrix(1,0,0,-1,68.11043,501.684)"><path
             d="M 22.92998,0 H 342.7373 c 6.7288,0 10.7661,0 13.4576,1.123671 3.88,1.412222 6.9365,4.468686 8.3487,8.348736 1.1237,2.691513 1.1237,6.728783 1.1237,13.457573 v 39.94005 c 0,6.72878 0,10.76605 -1.1237,13.45757 -1.4122,3.88005 -4.4687,6.93651 -8.3487,8.34873 C 353.5034,85.8 349.4661,85.8 342.7373,85.8 H 22.92998 c -6.72879,0 -10.76606,0 -13.457573,-1.12367 C 5.592357,83.26411 2.535893,80.20765 1.123671,76.3276 0,73.63608 0,69.59881 0,62.87003 V 22.92998 C 0,16.20119 0,12.16392 1.123671,9.472407 2.535893,5.592357 5.592357,2.535893 9.472407,1.123671 12.16392,0 16.20119,0 22.92998,0 Z"
             style="fill:none;stroke:#002e5c;stroke-width:3;stroke-linecap:butt;stroke-linejoin:miter;stroke-miterlimit:4;stroke-dasharray:none;stroke-opacity:1"
             id="path985" /></g></g></g><g
       id="g987"><g
         id="g989"
         clip-path="url(#clipPath993)"><g
           id="g995"
           transform="translate(184.1841,481.6234)"><text
             transform="scale(1,-1)"
             style="font-variant:normal;font-weight:bold;font-size:14px;font-family:Verdana;-inkscape-font-specification:Verdana-Bold;writing-mode:lr-tb;fill:#002e5c;fill-opacity:1;fill-rule:nonzero;stroke:none"
             id="text999"><tspan
               x="0 11.354 18.3134 27.6654 37.454201 47.427799 59.329201 68.25 73.035202 82.980797 91.218399 101.192 110.4894 125.3028"
               y="0"
               sodipodi:role="line"
               id="tspan997">GraphQL Schema</tspan></text></g><g
           id="g1001"
           transform="translate(184.1841,481.6234)" /><g
           id="g1003"
           transform="translate(73.68905,447.6234)"><text
             transform="scale(1,-1)"
             style="font-variant:normal;font-weight:normal;font-size:14px;font-family:Verdana;-inkscape-font-specification:Verdana;writing-mode:lr-tb;fill:#002e5c;fill-opacity:1;fill-rule:nonzero;stroke:none"
             id="text1007"><tspan
               x="0"
               y="0"
               id="tspan1005">•</tspan></text></g><g
           id="g1009"
           transform="translate(90.11043,447.6234)"><text
             transform="scale(1,-1)"
             style="font-variant:normal;font-weight:normal;font-size:14px;font-family:Verdana;-inkscape-font-specification:Verdana;writing-mode:lr-tb;fill:#002e5c;fill-opacity:1;fill-rule:nonzero;stroke:none"
             id="text1013"><tspan
               x="0 8.7220001 17.5812 21.4228 25.2644 33.986401 40.3438 49.0658 57.405602 66.264801 74.604599 80.333397 88.741798 94.257797 102.5976 111.3196 117.677 126.399 132.12781 140.53619 149.25819 158.1174 166.8394 170.681 177.03841 184.3324 191.6264 200.4856 208.82539 222.44321 230.85159 235.94479 244.66679 250.3956 258.80399 267.526 276.38519 285.10721 288.94879 296.2428"
               y="0"
               sodipodi:role="line"
               id="tspan1011">build/generated/graphql/schema.graphqls </tspan></text></g><g
           id="g1015"
           transform="translate(74.55942,430.6234)"><text
             transform="scale(1,-1)"
             style="font-variant:normal;font-weight:normal;font-size:14px;font-family:Verdana;-inkscape-font-specification:Verdana;writing-mode:lr-tb;fill:#002e5c;fill-opacity:1;fill-rule:nonzero;stroke:none"
             id="text1019"><tspan
               x="0"
               y="0"
               id="tspan1017">•</tspan></text></g><g
           id="g1021"
           transform="translate(90.11043,430.6234)"><text
             transform="scale(1,-1)"
             style="font-variant:normal;font-weight:normal;font-size:14px;font-family:Verdana;-inkscape-font-specification:Verdana;writing-mode:lr-tb;fill:#002e5c;fill-opacity:1;fill-rule:nonzero;stroke:none"
             id="text1025"><tspan
               x="0 8.7220001 17.218599 24.5126 31.806601 38.164001"
               y="0"
               sodipodi:role="line"
               id="tspan1023">docs: </tspan></text></g><g
           id="g1027"
           transform="translate(90.11043,430.6234)"><text
             transform="matrix(1,0,0,-1,43.08691,0)"
             style="font-variant:normal;font-weight:normal;font-size:14px;font-family:Verdana;-inkscape-font-specification:Verdana;writing-mode:lr-tb;fill:#002e5c;fill-opacity:1;fill-rule:nonzero;stroke:none"
             id="text1031"><tspan
               x="0 8.8591995 14.3752 19.891199 28.613199 35.9072 42.264599 48.622002 54.979401 63.701401 69.430199 77.8386 86.5606 95.4198 104.1418 107.9834 113.0766 121.5732 127.5484 136.2704"
               y="0"
               sodipodi:role="line"
               id="tspan1029">https://graphql.org/</tspan></text></g><g
           id="g1033"
           transform="matrix(1,0,0,-1,68.11043,501.684)"><path
             d="M 65.08691,72.29102 H 207.7187"
             style="fill:none;stroke:#002e5c;stroke-width:0.820312;stroke-linecap:butt;stroke-linejoin:miter;stroke-miterlimit:10;stroke-dasharray:none;stroke-opacity:1"
             id="path1035" /></g></g></g><g
       id="g1037"><g
         id="g1039"
         clip-path="url(#clipPath1043)"><g
           id="g1045"
           transform="translate(263.7933,540.7519)"><text
             transform="scale(1,-1)"
             style="font-variant:normal;font-weight:normal;font-size:14px;font-family:Verdana;-inkscape-font-specification:Verdana;writing-mode:lr-tb;fill:#000000;fill-opacity:1;fill-rule:nonzero;stroke:none"
             id="text1049"><tspan
               x="0 5.0932002 11.4506 20.1726 25.9014 34.309799 43.031799 46.873402 55.2132 66.670799 71.593201 80.315201 88.654999 97.514198 105.854 111.5828 119.9912 125.5072 133.847 144.70261 150.4314 158.8398 167.5618 176.42101 187.4404 195.2328 204.80321 212.0972 220.95641 229.2962 242.914"
               y="0"
               sodipodi:role="line"
               id="tspan1047">./gradlew generateGraphQLSchema</tspan></text></g><g
           id="g1051"
           transform="translate(249.2231,573.1248)"
           inkscape:export-xdpi="96"
           inkscape:export-ydpi="96"><text
             transform="scale(1,-1)"
             style="font-variant:normal;font-weight:normal;font-size:14px;font-family:Verdana;-inkscape-font-specification:Verdana;writing-mode:lr-tb;fill:#000000;fill-opacity:1;fill-rule:nonzero;stroke:none"
             id="text1055"><tspan
               x="0"
               y="0"
               sodipodi:role="line"
               id="tspan1053">generates</tspan></text></g><g
           id="g1057"
           transform="translate(691.0371,548.832)"><text
             transform="scale(1,-1)"
             style="font-variant:normal;font-weight:normal;font-size:12px;font-family:Verdana;-inkscape-font-specification:Verdana;writing-mode:lr-tb;fill:#cbcbcb;fill-opacity:1;fill-rule:nonzero;stroke:none"
             id="text1061"><tspan
               x="0 6.2519999 11.3736 17.625601 23.0748 34.7472 41.954399 45.2472 52.840801 58.290001 65.274002 72.556801 77.284798 80.577599 83.870399 91.463997 96.9132 104.196 109.3176 116.7936 122.2428 128.4948 135.7776 143.2536 150.40199 154.6212 159.7428 166.8912 174.0984 181.2"
               y="0"
               sodipodi:role="line"
               id="tspan1059">src/main/kotlin/org/codefreak/</tspan></text></g><g
           id="g1063"
           transform="translate(675.3105,533.832)"><text
             transform="scale(1,-1)"
             style="font-variant:normal;font-weight:normal;font-size:12px;font-family:Verdana;-inkscape-font-specification:Verdana;writing-mode:lr-tb;fill:#cbcbcb;fill-opacity:1;fill-rule:nonzero;stroke:none"
             id="text1067"><tspan
               x="0 6.2519999 13.5348 21.010799 28.159201 32.378399 37.5 44.648399 51.855598 58.957199 64.406403 71.882401 76.792801 84 91.475998 99.069603 106.5456 109.8384 115.2876 123.4908 129.7428 137.3364 144.4848 156.1572 163.3644 170.6004 175.722 179.0148 186.6084 191.3364 198.4848 201.9072 206.2728 213.3744"
               y="0"
               sodipodi:role="line"
               id="tspan1065">codefreak/graphql/SchemaPrinter.kt</tspan></text></g><g
           id="g1069"
           transform="matrix(1,0,0,-1,311.5997,317.3742)"><path
             d="M 22.92998,0 H 377.8707 c 6.7287,0 10.766,0 13.4575,1.123671 3.8801,1.412222 6.9365,4.468686 8.3488,8.348736 1.1236,2.691513 1.1236,6.728783 1.1236,13.457573 v 39.94005 c 0,6.72878 0,10.76605 -1.1236,13.45757 -1.4123,3.88005 -4.4687,6.93651 -8.3488,8.34873 C 388.6367,85.8 384.5994,85.8 377.8707,85.8 H 22.92998 c -6.72879,0 -10.76606,0 -13.457573,-1.12367 C 5.592357,83.26411 2.535893,80.20765 1.123671,76.3276 0,73.63608 0,69.59881 0,62.87003 V 22.92998 C 0,16.20119 0,12.16392 1.123671,9.472407 2.535893,5.592357 5.592357,2.535893 9.472407,1.123671 12.16392,0 16.20119,0 22.92998,0 Z"
             style="fill:none;stroke:#002e5c;stroke-width:3;stroke-linecap:butt;stroke-linejoin:miter;stroke-miterlimit:4;stroke-dasharray:none;stroke-opacity:1"
             id="path1071" /></g></g></g><g
       id="g1073"><g
         id="g1075"
         clip-path="url(#clipPath1079)"><g
           id="g1081"
           transform="translate(419.2386,297.3136)"><text
             transform="scale(1,-1)"
             style="font-variant:normal;font-weight:bold;font-size:14px;font-family:Verdana;-inkscape-font-specification:Verdana-Bold;writing-mode:lr-tb;fill:#002e5c;fill-opacity:1;fill-rule:nonzero;stroke:none"
             id="text1085"><tspan
               x="0 9.7888002 16.748199 26.100201 35.889 45.862598 55.651402 60.4366 67.156601 75.394203 85.005203 94.793999 104.0914 113.8802 123.1776 133.1512 137.9364 146.174 155.785 165.75861 171.6722 176.4574 186.2462"
               y="0"
               sodipodi:role="line"
               id="tspan1083">graphql-codegen config </tspan></text></g><g
           id="g1087"
           transform="translate(317.1783,263.3136)"><text
             transform="scale(1,-1)"
             style="font-variant:normal;font-weight:normal;font-size:14px;font-family:Verdana;-inkscape-font-specification:Verdana;writing-mode:lr-tb;fill:#002e5c;fill-opacity:1;fill-rule:nonzero;stroke:none"
             id="text1091"><tspan
               x="0"
               y="0"
               id="tspan1089">•</tspan></text></g><g
           id="g1093"
           transform="translate(333.5997,263.3136)"><text
             transform="scale(1,-1)"
             style="font-variant:normal;font-weight:normal;font-size:14px;font-family:Verdana;-inkscape-font-specification:Verdana;writing-mode:lr-tb;fill:#002e5c;fill-opacity:1;fill-rule:nonzero;stroke:none"
             id="text1097"><tspan
               x="0 7.2940001 11.1356 14.9772 23.316999 32.176201 37.6922 44.049599 51.343601 59.840199 68.562202 76.902 85.624001 93.963799 102.823 107.9162 116.2014 129.8192 133.6608"
               y="0"
               sodipodi:role="line"
               id="tspan1095">client/codegen.yml </tspan></text></g><g
           id="g1099"
           transform="translate(318.0487,246.3136)"><text
             transform="scale(1,-1)"
             style="font-variant:normal;font-weight:normal;font-size:14px;font-family:Verdana;-inkscape-font-specification:Verdana;writing-mode:lr-tb;fill:#002e5c;fill-opacity:1;fill-rule:nonzero;stroke:none"
             id="text1103"><tspan
               x="0"
               y="0"
               id="tspan1101">•</tspan></text></g><g
           id="g1105"
           transform="translate(333.5997,246.3136)"><text
             transform="scale(1,-1)"
             style="font-variant:normal;font-weight:normal;font-size:14px;font-family:Verdana;-inkscape-font-specification:Verdana;writing-mode:lr-tb;fill:#002e5c;fill-opacity:1;fill-rule:nonzero;stroke:none"
             id="text1109"><tspan
               x="0 8.7220001 17.218599 24.5126 31.806601 38.164001"
               y="0"
               sodipodi:role="line"
               id="tspan1107">docs: </tspan></text></g><g
           id="g1111"
           transform="translate(333.5997,246.3136)"><text
             transform="matrix(1,0,0,-1,43.08691,0)"
             style="font-variant:normal;font-weight:normal;font-size:14px;font-family:Verdana;-inkscape-font-specification:Verdana;writing-mode:lr-tb;fill:#002e5c;fill-opacity:1;fill-rule:nonzero;stroke:none"
             id="text1115"><tspan
               x="0 8.8591995 14.3752 19.891199 28.613199 35.9072 42.264599 48.622002 54.979401 66.436996 77.8946 88.873398 93.966599 102.6886 108.4174 116.8258 125.5478 134.407 143.129 146.9706 153.328 160.62199 169.11861 177.84061 186.1804 192.5378 201.2598 209.59959 218.4588 226.7986 232.5274 240.93581 246.4518 254.94839 258.94119 264.03439 271.3284 279.82501 293.44281"
               y="0"
               sodipodi:role="line"
               id="tspan1113">https://www.graphql-code-generator.com/</tspan></text></g><g
           id="g1117"
           transform="matrix(1,0,0,-1,311.5997,317.3742)"><path
             d="M 65.08691,72.29102 H 364.8906"
             style="fill:none;stroke:#002e5c;stroke-width:0.820312;stroke-linecap:butt;stroke-linejoin:miter;stroke-miterlimit:10;stroke-dasharray:none;stroke-opacity:1"
             id="path1119" /></g></g></g><g
       id="g1121"><g
         id="g1123"
         clip-path="url(#clipPath1127)"><g
           id="g1129"
           transform="rotate(90,168.7419,325.1184)"><text
             transform="scale(1,-1)"
             style="font-variant:normal;font-weight:normal;font-size:14px;font-family:Verdana;-inkscape-font-specification:Verdana;writing-mode:lr-tb;fill:#000000;fill-opacity:1;fill-rule:nonzero;stroke:none"
             id="text1133"
             x="-6"><tspan
               x="-6"
               sodipodi:role="line"
               id="tspan1131"
               y="0">generates</tspan></text></g><g
           id="g1135"
           transform="translate(535.9209,179.6826)"><text
             transform="scale(1,-1)"
             style="font-variant:normal;font-weight:normal;font-size:14px;font-family:Verdana;-inkscape-font-specification:Verdana;writing-mode:lr-tb;fill:#000000;fill-opacity:1;fill-rule:nonzero;stroke:none"
             id="text1139"><tspan
               x="0 8.8591995 17.5812 31.198999 36.121399 42.0966 50.955799 59.814999 64.737396 73.459396 81.799202 90.658401 98.998199 104.727 113.1354 118.6514"
               y="0"
               sodipodi:role="line"
               id="tspan1137">npm run generate</tspan></text></g></g></g><g
       id="g1141"><g
         id="g1143"
         clip-path="url(#clipPath1147)"><g
           id="g1149"
           transform="matrix(1,0,0,-1,548.9609,546.6103)"><path
             d="m 0,0 h 91.31135 1"
             style="fill:none;stroke:#cbcbcb;stroke-width:2;stroke-linecap:butt;stroke-linejoin:miter;stroke-miterlimit:4;stroke-dasharray:none;stroke-opacity:1"
             id="path1151" /></g><path
           d="m 640.2722,541.8103 9.6,4.8 -9.6,4.8 z"
           style="fill:#cbcbcb;fill-opacity:1;fill-rule:nonzero;stroke:none"
           id="path1153" /></g></g><g
       id="g1155"><g
         id="g1157"
         clip-path="url(#clipPath1161)"><g
           id="g1163"
           transform="translate(586.1363,558.7911)"><text
             transform="scale(1,-1)"
             style="font-variant:normal;font-weight:normal;font-size:12px;font-family:Verdana;-inkscape-font-specification:Verdana;writing-mode:lr-tb;fill:#cbcbcb;fill-opacity:1;fill-rule:nonzero;stroke:none"
             id="text1167"><tspan
               x="0 5.1216002 12.7152 20.3088"
               y="0"
               sodipodi:role="line"
               id="tspan1165">runs</tspan></text></g></g></g><g
       id="g1169"><g
         id="g1171"
         clip-path="url(#clipPath1175)"><path
           d="m 624.4586,501.784 h 319.8073 c 6.7288,0 10.7661,0 13.4576,-1.1237 3.8801,-1.4122 6.9365,-4.4687 8.3487,-8.3487 1.1237,-2.6915 1.1237,-6.7288 1.1237,-13.4576 v -40.14 c 0,-6.7288 0,-10.7661 -1.1237,-13.4576 -1.4122,-3.8801 -4.4686,-6.9365 -8.3487,-8.3487 -2.6915,-1.1237 -6.7288,-1.1237 -13.4576,-1.1237 H 624.4586 c -6.7288,0 -10.7661,0 -13.4576,1.1237 -3.88,1.4122 -6.9365,4.4686 -8.3487,8.3487 -1.1237,2.6915 -1.1237,6.7288 -1.1237,13.4576 v 40.14 c 0,6.7288 0,10.7661 1.1237,13.4576 1.4122,3.88 4.4687,6.9365 8.3487,8.3487 2.6915,1.1237 6.7288,1.1237 13.4576,1.1237 z"
           style="fill:#c2d97e;fill-opacity:0.5;fill-rule:nonzero;stroke:none"
           id="path1177" /><g
           id="g1179"
           transform="matrix(1,0,0,-1,601.5286,501.784)"><path
             d="M 22.92998,0 H 342.7373 c 6.7288,0 10.7661,0 13.4576,1.123671 3.88,1.412222 6.9365,4.468686 8.3487,8.348736 1.1237,2.691513 1.1237,6.728783 1.1237,13.457573 v 40.14005 c 0,6.72878 0,10.76605 -1.1237,13.45756 -1.4122,3.88005 -4.4687,6.93652 -8.3487,8.34874 C 353.5034,86 349.4661,86 342.7373,86 H 22.92998 C 16.20119,86 12.16392,86 9.472407,84.87633 5.592357,83.46411 2.535893,80.40764 1.123671,76.52759 0,73.83608 0,69.79881 0,63.07003 V 22.92998 C 0,16.20119 0,12.16392 1.123671,9.472407 2.535893,5.592357 5.592357,2.535893 9.472407,1.123671 12.16392,0 16.20119,0 22.92998,0 Z"
             style="fill:none;stroke:#002e5c;stroke-width:3;stroke-linecap:butt;stroke-linejoin:miter;stroke-miterlimit:4;stroke-dasharray:none;stroke-opacity:1"
             id="path1181" /></g></g></g><g
       id="g1183"><g
         id="g1185"
         clip-path="url(#clipPath1189)"><g
           id="g1191"
           transform="translate(740.824,481.7234)"><text
             transform="scale(1,-1)"
             style="font-variant:normal;font-weight:bold;font-size:14px;font-family:Verdana;-inkscape-font-specification:Verdana-Bold;writing-mode:lr-tb;fill:#002e5c;fill-opacity:1;fill-rule:nonzero;stroke:none"
             id="text1195"><tspan
               x="0 11.6214 21.226801 29.460199 39.4296 54.243 63.540401 73.509804 79.881203"
               y="0"
               sodipodi:role="line"
               id="tspan1193">Documents</tspan></text></g><g
           id="g1197"
           transform="translate(740.824,481.7234)" /><g
           id="g1199"
           transform="translate(607.1015,447.7234)"><text
             transform="scale(1,-1)"
             style="font-variant:normal;font-weight:normal;font-size:14px;font-family:Verdana;-inkscape-font-specification:Verdana;writing-mode:lr-tb;fill:#002e5c;fill-opacity:1;fill-rule:nonzero;stroke:none"
             id="text1203"><tspan
               x="0"
               y="0"
               id="tspan1201">•</tspan></text></g><g
           id="g1205"
           transform="translate(623.5286,447.7234)"><text
             transform="scale(1,-1)"
             style="font-variant:normal;font-weight:normal;font-size:14px;font-family:Verdana;-inkscape-font-specification:Verdana;writing-mode:lr-tb;fill:#002e5c;fill-opacity:1;fill-rule:nonzero;stroke:none"
             id="text1209"><tspan
               x="0 3.8415999 12.3382 19.6322 28.0406 33.556599 41.8964 50.618401 55.540798 59.382401 68.2416 73.164001 80.458 84.299599 88.141197 96.481003 105.3402 110.8562 117.2136 125.9356 131.6644 140.0728 148.7948 157.65401 166.37601 170.21761 176.575 185.47479 191.8322 200.73199 205.8252 214.5472 220.276 228.6844 237.4064 246.26559 254.98759 263.70959"
               y="0"
               sodipodi:role="line"
               id="tspan1207">located in client/graphql/*/*.graphgql</tspan></text></g></g></g><g
       id="g1211"><g
         id="g1213"
         clip-path="url(#clipPath1217)"><g
           id="g1219"
           transform="matrix(1,0,0,-1,512,414.3)"><path
             d="M 0,95.4 V 60.8 H 272.3 V 9.6 8.6"
             style="fill:none;stroke:#002e5c;stroke-width:2;stroke-linecap:butt;stroke-linejoin:miter;stroke-miterlimit:4;stroke-dasharray:none;stroke-opacity:1"
             id="path1221" /></g><path
           d="m 789.1,404.7 -4.8,9.6 -4.8,-9.6 z"
           style="fill:#002e5c;fill-opacity:1;fill-rule:nonzero;stroke:none"
           id="path1223" /><g
           id="g1225"
           transform="translate(596.3164,360.4395)"><text
             transform="scale(1,-1)"
             style="font-variant:normal;font-weight:normal;font-size:14px;font-family:Verdana;-inkscape-font-specification:Verdana;writing-mode:lr-tb;fill:#000000;fill-opacity:1;fill-rule:nonzero;stroke:none"
             id="text1229"><tspan
               x="0 5.9752002 14.3164 19.2416 27.5828 33.557999 41.8992"
               y="0"
               sodipodi:role="line"
               id="tspan1227">references</tspan></text></g><g
           id="g1231"
           transform="matrix(1,0,0,-1,250.9,414.4)"><path
             d="M 261.1,95.5 V 60.9 H 0 V 9.6 8.6"
             style="fill:none;stroke:#002e5c;stroke-width:2;stroke-linecap:butt;stroke-linejoin:miter;stroke-miterlimit:4;stroke-dasharray:none;stroke-opacity:1"
             id="path1233" /></g><path
           d="m 255.7,404.8 -4.8,9.6 -4.8,-9.6 z"
           style="fill:#002e5c;fill-opacity:1;fill-rule:nonzero;stroke:none"
           id="path1235" /><g
           id="g1237"
           transform="translate(324.8039,360.4395)"><text
             transform="scale(1,-1)"
             style="font-variant:normal;font-weight:normal;font-size:14px;font-family:Verdana;-inkscape-font-specification:Verdana;writing-mode:lr-tb;fill:#000000;fill-opacity:1;fill-rule:nonzero;stroke:none"
             id="text1241"><tspan
               x="0 5.9752002 14.3164 19.2416 27.5828 33.557999 41.8992"
               y="0"
               sodipodi:role="line"
               id="tspan1239">references</tspan><tspan
               x="0 5.9752002 14.3164 19.2416 27.5828 33.557999 41.8992"
               y="0"
               sodipodi:role="line"
               id="tspan1116" /></text></g><g
           id="g1243"
           transform="matrix(1,0,0,-1,250.9,592.1)"><path
             d="M 0,77.2 V 75.7 27.5 H 78.2 V 0"
             style="fill:none;stroke:#002e5c;stroke-width:3;stroke-linecap:butt;stroke-linejoin:miter;stroke-miterlimit:4;stroke-dasharray:none;stroke-opacity:1"
             id="path1245" /></g><path
           d="m 244.3,516.4 6.6,-13.2 6.6,13.2 z"
           style="fill:#002e5c;fill-opacity:1;fill-rule:nonzero;stroke:none"
           id="path1247" /><g
           id="g1249"
           transform="matrix(1,0,0,-1,311.5997,136.3678)"><path
             d="M 22.92997,0 H 377.8707 c 6.7287,0 10.766,0 13.4575,1.123671 3.8801,1.412222 6.9365,4.468686 8.3488,8.348736 1.1236,2.691513 1.1236,6.728783 1.1236,13.457573 v 24.3806 c 0,6.72878 0,10.76605 -1.1236,13.45757 -1.4123,3.88005 -4.4687,6.93651 -8.3488,8.34873 -2.6915,1.12367 -6.7288,1.12367 -13.4575,1.12367 H 22.92997 c -6.72878,0 -10.76605,0 -13.457563,-1.12367 C 5.592357,67.70466 2.535893,64.6482 1.123671,60.76815 0,58.07663 0,54.03936 0,47.31058 V 22.92998 C 0,16.20119 0,12.16392 1.123671,9.472407 2.535893,5.592357 5.592357,2.535893 9.472407,1.123671 12.16392,0 16.20119,0 22.92997,0 Z"
             style="fill:none;stroke:#002e5c;stroke-width:3;stroke-linecap:butt;stroke-linejoin:miter;stroke-miterlimit:4;stroke-dasharray:none;stroke-opacity:1"
             id="path1251" /></g></g></g><g
       id="g1253"
       inkscape:label="g1253"><g
         id="g1255"
         clip-path="url(#clipPath1259)"><g
           id="g1261"
           transform="translate(450.4036,116.3072)"><text
             transform="scale(1,-1)"
             style="font-variant:normal;font-weight:bold;font-size:14px;font-family:Verdana;-inkscape-font-specification:Verdana-Bold;writing-mode:lr-tb;fill:#002e5c;fill-opacity:1;fill-rule:nonzero;stroke:none"
             id="text1265"><tspan
               x="0 9.5424004 18.650801 28.4452 37.749599 46.060001 54.3004 61.2668 66.049202 75.843597 82.222 87.004402 95.244797 104.8572 114.6516 123.956"
               y="0"
               sodipodi:role="line"
               id="tspan1263">Typescript code </tspan></text></g><g
           id="g1267"
           transform="translate(317.8402,82.30722)"><text
             transform="scale(1,-1)"
             style="font-variant:normal;font-weight:normal;font-size:14px;font-family:Verdana;-inkscape-font-specification:Verdana;writing-mode:lr-tb;fill:#002e5c;fill-opacity:1;fill-rule:nonzero;stroke:none"
             id="text1271"><tspan
               x="0"
               y="0"
               id="tspan1269">•</tspan></text></g><g
           id="g1273"
           transform="translate(333.5997,82.30722)"><text
             transform="scale(1,-1)"
             style="font-variant:normal;font-weight:normal;font-size:14px;font-family:Verdana;-inkscape-font-specification:Verdana;writing-mode:lr-tb;fill:#002e5c;fill-opacity:1;fill-rule:nonzero;stroke:none"
             id="text1277"><tspan
               x="0 7.2940001 11.1356 14.9772 23.316999 32.176201 37.6922 44.049599 51.343601 57.318802 64.612801 70.9702 79.6922 88.031998 96.891197 105.231 110.9598 119.3682 124.8842 133.224 141.946 148.30341 157.02541 162.7542 171.1626 179.8846 188.7438 197.46581 201.3074 206.4006 211.9166 219.2106"
               y="0"
               sodipodi:role="line"
               id="tspan1275">client/src/generated/graphql.tsx</tspan></text></g></g></g><g
       id="g1279"><g
         id="g1281"
         clip-path="url(#clipPath1285)"><g
           id="g1287"
           transform="matrix(1,0,0,-1,511.9,230.1)"><path
             d="M 0,80.5 V 79 38 H 0.1 V 0"
             style="fill:none;stroke:#002e5c;stroke-width:3;stroke-linecap:butt;stroke-linejoin:miter;stroke-miterlimit:4;stroke-dasharray:none;stroke-opacity:1"
             id="path1289" /></g><path
           d="m 505.3,151.1 6.6,-13.2 6.6,13.2 z"
           style="fill:#002e5c;fill-opacity:1;fill-rule:nonzero;stroke:none"
           id="path1291" /><g
           id="g1293"
           transform="translate(802.7223,179.9092)"><text
             transform="scale(1,-1)"
             style="font-variant:normal;font-weight:normal;font-size:12px;font-family:Verdana;-inkscape-font-specification:Verdana;writing-mode:lr-tb;fill:#cbcbcb;fill-opacity:1;fill-rule:nonzero;stroke:none"
             id="text1297"><tspan
               x="0 7.4759998 12.3864 19.593599 27.069599 34.6632 42.139198 45.431999 50.881199 57.133202 64.416 71.891998 79.040398 86.516403 93.664803"
               y="0"
               sodipodi:role="line"
               id="tspan1295">graphql-codegen</tspan></text></g></g></g><g
       id="g1299"><g
         id="g1301"
         clip-path="url(#clipPath1305)"><g
           id="g1307"
           transform="matrix(1,0,0,-1,680.8578,183.5591)"><path
             d="m 0,0 h 91.31135 1"
             style="fill:none;stroke:#cbcbcb;stroke-width:2;stroke-linecap:butt;stroke-linejoin:miter;stroke-miterlimit:4;stroke-dasharray:none;stroke-opacity:1"
             id="path1309" /></g><path
           d="m 772.1691,178.7591 9.6,4.8 -9.6,4.8 z"
           style="fill:#cbcbcb;fill-opacity:1;fill-rule:nonzero;stroke:none"
           id="path1311" /></g></g><g
       id="g1313"><g
         id="g1315"
         clip-path="url(#clipPath1319)"><g
           id="g1321"
           transform="translate(718.0332,195.7399)"><text
             transform="scale(1,-1)"
             style="font-variant:normal;font-weight:normal;font-size:12px;font-family:Verdana;-inkscape-font-specification:Verdana;writing-mode:lr-tb;fill:#cbcbcb;fill-opacity:1;fill-rule:nonzero;stroke:none"
             id="text1325"><tspan
               x="0 5.1216002 12.7152 20.3088"
               y="0"
               sodipodi:role="line"
               id="tspan1323">runs</tspan></text></g></g></g><g
       id="g1327"><g
         id="g1329"
         clip-path="url(#clipPath1333)"><path
           d="m 676.7343,700.4549 h 301.1024 c 6.7288,0 10.766,0 13.4575,-1.1237 3.8801,-1.4122 6.9365,-4.4687 8.3488,-8.3487 1.124,-2.6915 1.124,-6.7288 1.124,-13.4576 v -24.3806 c 0,-6.7288 0,-10.766 -1.124,-13.4576 -1.4123,-3.88 -4.4687,-6.9365 -8.3488,-8.3487 -2.6915,-1.1237 -6.7287,-1.1237 -13.4575,-1.1237 H 676.7343 c -6.7288,0 -10.7661,0 -13.4576,1.1237 -3.88,1.4122 -6.9365,4.4687 -8.3487,8.3487 -1.1237,2.6916 -1.1237,6.7288 -1.1237,13.4576 v 24.3806 c 0,6.7288 0,10.7661 1.1237,13.4576 1.4122,3.88 4.4687,6.9365 8.3487,8.3487 2.6915,1.1237 6.7288,1.1237 13.4576,1.1237 z"
           style="fill:#cbcbcb;fill-opacity:1;fill-rule:nonzero;stroke:none"
           id="path1335" /><g
           id="g1337"
           transform="matrix(1,0,0,-1,653.8043,700.4549)"><path
             d="M 22.92997,0 H 324.0324 c 6.7288,0 10.766,0 13.4575,1.123671 3.8801,1.412222 6.9365,4.468686 8.3488,8.348736 1.1236,2.691513 1.1236,6.728783 1.1236,13.457563 v 24.38061 c 0,6.72878 0,10.76605 -1.1236,13.45757 -1.4123,3.88005 -4.4687,6.93651 -8.3488,8.34873 -2.6915,1.12367 -6.7287,1.12367 -13.4575,1.12367 H 22.92997 c -6.72878,0 -10.76605,0 -13.457563,-1.12367 C 5.592357,67.70466 2.535893,64.6482 1.123671,60.76815 0,58.07663 0,54.03936 0,47.31058 V 22.92998 C 0,16.20119 0,12.16392 1.123671,9.472407 2.535893,5.592357 5.592357,2.535893 9.472407,1.123671 12.16392,0 16.20119,0 22.92997,0 Z"
             style="fill:none;stroke:#002e5c;stroke-width:3;stroke-linecap:butt;stroke-linejoin:miter;stroke-miterlimit:4;stroke-dasharray:none;stroke-opacity:1"
             id="path1339" /></g></g></g><g
       id="g1341"><g
         id="g1343"
         clip-path="url(#clipPath1347)"><g
           id="g1349"
           transform="translate(667.2647,680.3943)"><text
             transform="scale(1,-1)"
             style="font-variant:normal;font-weight:bold;font-size:14px;font-family:Verdana;-inkscape-font-specification:Verdana-Bold;writing-mode:lr-tb;fill:#002e5c;fill-opacity:1;fill-rule:nonzero;stroke:none"
             id="text1353"><tspan
               x="0 10.8696 20.6584 30.2694 40.058201 46.4366 51.221802 57.135399 66.746399 73.705803 78.490997 86.7286 96.702202 106.0542 116.0278 125.8166 135.114 139.8992 144.6844 154.658 159.44321 170.7972 177.75661 187.1086 196.8974 206.871 218.7724 227.69321 232.47839 237.2636 247.2372 253.6156 262.91299 269.87241 275.78601 285.138 293.37561 302.673 308.30521"
               y="0"
               sodipodi:role="line"
               id="tspan1351">Adopt for change in GraphQL interface: </tspan></text></g><g
           id="g1355"
           transform="translate(659.4344,663.3943)"><text
             transform="scale(1,-1)"
             style="font-variant:normal;font-weight:normal;font-size:14px;font-family:Verdana;-inkscape-font-specification:Verdana;writing-mode:lr-tb;fill:#002e5c;fill-opacity:1;fill-rule:nonzero;stroke:none"
             id="text1359"><tspan
               x="0"
               y="0"
               id="tspan1357">•</tspan></text></g><g
           id="g1361"
           transform="translate(675.8043,663.3943)"><text
             transform="scale(1,-1)"
             style="font-variant:normal;font-weight:normal;font-size:14px;font-family:Verdana;-inkscape-font-specification:Verdana;writing-mode:lr-tb;fill:#002e5c;fill-opacity:1;fill-rule:nonzero;stroke:none"
             id="text1365"><tspan
               x="0 8.1479998 16.6446 22.160601 26.002199 29.8438 38.702999 43.625401 50.919399 54.761002 63.169399 70.463402 77.757401 82.679802 94.137398 97.978996 103.495 112.3542 117.2766 121.1182 129.9774 135.49339 143.83321 149.8084 154.7308 163.13921 170.4332 178.77299 183.6954 187.537 201.1548 209.8768 213.7184 222.0582 235.67599 244.01579 252.875 258.39099 266.79941 272.3154 276.15701 284.65359 293.51279"
               y="0"
               sodipodi:role="line"
               id="tspan1363">kotlin class with interface implementation </tspan></text></g><g
           id="g1367"
           transform="translate(660.0448,646.3943)"><text
             transform="scale(1,-1)"
             style="font-variant:normal;font-weight:normal;font-size:14px;font-family:Verdana;-inkscape-font-specification:Verdana;writing-mode:lr-tb;fill:#002e5c;fill-opacity:1;fill-rule:nonzero;stroke:none"
             id="text1371"><tspan
               x="0"
               y="0"
               id="tspan1369">•</tspan></text></g><g
           id="g1373"
           transform="translate(675.8043,646.3943)"><text
             transform="scale(1,-1)"
             style="font-variant:normal;font-weight:normal;font-size:14px;font-family:Verdana;-inkscape-font-specification:Verdana;writing-mode:lr-tb;fill:#002e5c;fill-opacity:1;fill-rule:nonzero;stroke:none"
             id="text1377"><tspan
               x="0 8.7220001 14.4508 22.8592 31.5812 40.440399 49.162399 53.004002 57.926399 66.648399 75.144997 82.439003 91.298203 104.916 113.2558 122.115"
               y="0"
               sodipodi:role="line"
               id="tspan1375">graphql document</tspan></text></g></g></g><g
       id="g1379"><g
         id="g1381"
         clip-path="url(#clipPath1385)"><g
           id="g1387"
           transform="matrix(1,0,0,-1,827.2,628.8)"><path
             d="M 0,0 V 53.7 H 161.4 V 170 H 151 150"
             style="fill:none;stroke:#c2d97e;stroke-width:2;stroke-linecap:butt;stroke-linejoin:miter;stroke-miterlimit:4;stroke-dasharray:none;stroke-opacity:1"
             id="path1389" /></g><path
           d="m 978.2,463.6 -9.6,-4.8 9.6,-4.8 z"
           style="fill:#c2d97e;fill-opacity:1;fill-rule:nonzero;stroke:none"
           id="path1391" /><g
           id="g1393"
           transform="matrix(1,0,0,-1,593.8,665.4)"><path
             d="M 58.5,0 H 9.6 8.6"
             style="fill:none;stroke:#c2d97e;stroke-width:2;stroke-linecap:butt;stroke-linejoin:miter;stroke-miterlimit:4;stroke-dasharray:none;stroke-opacity:1"
             id="path1395" /></g><path
           d="m 603.4,670.2 -9.6,-4.8 9.6,-4.8 z"
           style="fill:#c2d97e;fill-opacity:1;fill-rule:nonzero;stroke:none"
           id="path1397" /></g></g></g></svg>
